<svg xmlns="http://www.w3.org/2000/svg" width="37.294" height="33.877" viewBox="0 0 37.294 33.877"><defs><style>.a{fill:#fa0;}.b{fill:#fff;}</style></defs><g transform="translate(-1311.853 -138.123)"><path class="a" d="M18.019,6.153a4,4,0,0,1,6.963,0L39.622,32.03A4,4,0,0,1,36.141,38H6.859a4,4,0,0,1-3.481-5.97Z" transform="translate(1309 134)"/><path class="b" d="M4.325-6.1,4.7-17.275H1.25L1.65-6.1ZM3-3.675A2.017,2.017,0,0,0,.975-1.65,2.033,2.033,0,0,0,3,.375,2.016,2.016,0,0,0,5.025-1.65,2,2,0,0,0,3-3.675Z" transform="translate(1327.608 165.558)"/></g></svg>