<svg xmlns="http://www.w3.org/2000/svg" width="32" height="32" viewBox="0 0 32 32"><defs><style>.a{fill:#f15f52;}</style></defs><g transform="translate(-741 -365)"><g transform="translate(749.007 373.006)"><path class="a" d="M2671.97,5843.515a1.432,1.432,0,0,1-1.012-.418l-13.129-13.134a1.428,1.428,0,0,1,2.02-2.019l13.133,13.134a1.427,1.427,0,0,1-1.01,2.437Z" transform="translate(-2657.409 -5827.525)"/><path class="a" d="M2658.839,5843.515a1.427,1.427,0,0,1-1.01-2.437l13.129-13.134a1.429,1.429,0,0,1,2.023,2.019l-13.133,13.134A1.421,1.421,0,0,1,2658.839,5843.515Z" transform="translate(-2657.409 -5827.525)"/></g><g transform="translate(741 365)"><path class="a" d="M2669.407,5855.521a16,16,0,1,1,16-16A16.019,16.019,0,0,1,2669.407,5855.521Zm0-29.331a13.332,13.332,0,1,0,13.333,13.332A13.349,13.349,0,0,0,2669.407,5826.19Z" transform="translate(-2653.407 -5823.521)"/></g></g></svg>