<svg xmlns="http://www.w3.org/2000/svg" width="32" height="32" viewBox="0 0 32 32"><defs><style>.a{fill:#0d84ff;}</style></defs><g transform="translate(-741 -215)"><g transform="translate(741 215)"><path class="a" d="M2669.407,5855.521a16,16,0,1,1,16-16A16.019,16.019,0,0,1,2669.407,5855.521Zm0-29.331a13.332,13.332,0,1,0,13.333,13.332A13.349,13.349,0,0,0,2669.407,5826.19Z" transform="translate(-2653.407 -5823.521)"/></g><path class="a" d="M690.333,378.359a1.5,1.5,0,0,0-2.122,0l-7.449,7.449-3.914-3.914a1.5,1.5,0,0,0-2.121,2.121l4.95,4.95a1.571,1.571,0,0,0,2.17,0l8.486-8.485A1.5,1.5,0,0,0,690.333,378.359Z" transform="translate(74.712 -151.92)"/></g></svg>