<svg xmlns="http://www.w3.org/2000/svg" width="34.937" height="31.018" viewBox="0 0 34.937 31.018"><defs><style>.a{fill:#858f9e;}</style></defs><path class="a" d="M698.264,382.258h-.135v-1.2a7.26,7.26,0,0,0-7.252-7.253h-7.948v-1.573a1.9,1.9,0,1,0-.8,0V373.8h-7.95a7.263,7.263,0,0,0-7.253,7.253v1.2h-.135a1.731,1.731,0,0,0-1.73,1.73v2.795a1.731,1.731,0,0,0,1.73,1.729h.135v3.726a7.263,7.263,0,0,0,7.253,7.254h16.7a7.262,7.262,0,0,0,7.254-7.255v-3.726h.135a1.732,1.732,0,0,0,1.73-1.729v-2.794A1.731,1.731,0,0,0,698.264,382.258Zm-16.832-11.874a1.1,1.1,0,1,1,1.1,1.1h0a1.1,1.1,0,0,1-1.1-1.1h0Zm-14.64,17.332a.932.932,0,0,1-.931-.931v-2.8a.933.933,0,0,1,.931-.932h.135v4.655Zm30.272,4.524a6.2,6.2,0,0,1-6.188,6.188h-16.7a6.2,6.2,0,0,1-6.187-6.188V381.061a6.2,6.2,0,0,1,6.187-6.188h16.7a6.194,6.194,0,0,1,6.188,6.188Zm2.129-5.456a.932.932,0,0,1-.931.931h-.135v-4.658h.135a.933.933,0,0,1,.931.932Zm-8.369,5.974H674.237a3.255,3.255,0,0,1-3.251-3.251v-8.432a3.255,3.255,0,0,1,3.251-3.251h16.587a3.254,3.254,0,0,1,3.251,3.251v8.432A3.254,3.254,0,0,1,690.824,392.758Zm-16.587-13.934a2.253,2.253,0,0,0-2.251,2.251v8.432a2.254,2.254,0,0,0,2.251,2.251h16.587a2.254,2.254,0,0,0,2.251-2.251v-8.432a2.253,2.253,0,0,0-2.251-2.251Zm3.26,5.756a4.625,4.625,0,0,1,2.191.548.414.414,0,0,0,.564-.554,3.155,3.155,0,0,0-5.511,0,.414.414,0,0,0,.564.554A4.635,4.635,0,0,1,677.5,384.58Zm10.066,0a4.629,4.629,0,0,1,2.192.548.414.414,0,0,0,.564-.554,3.155,3.155,0,0,0-5.511,0,.414.414,0,0,0,.564.554A4.628,4.628,0,0,1,687.563,384.58Z" transform="translate(-665.061 -368.474)"/></svg>